<?xml version="1.0" standalone="no"?><!DOCTYPE svg PUBLIC "-//W3C//DTD SVG 1.1//EN" "http://www.w3.org/Graphics/SVG/1.1/DTD/svg11.dtd"><svg height="1024" node-id="1" sillyvg="true" template-height="1024" template-width="1024" version="1.1" viewBox="0 0 1024 1024" width="1024" xmlns="http://www.w3.org/2000/svg" xmlns:xlink="http://www.w3.org/1999/xlink"><defs node-id="18"><linearGradient gradientUnits="objectBoundingBox" id="linearGradient-1" node-id="5" spreadMethod="pad" x1="0.5" x2="0.5" y1="0" y2="0.5"><stop offset="0" stop-color="#e6f2ff"></stop><stop offset="1" stop-color="#e3effd" stop-opacity="0"></stop></linearGradient></defs><path d="M 928.00 707.20 L 927.70 711.60 L 926.80 716.10 L 925.20 720.60 L 922.90 725.10 L 919.90 729.80 L 916.70 733.90 L 912.70 738.10 L 908.10 742.40 L 902.60 746.80 L 896.30 751.30 L 888.60 756.20 L 879.70 761.10 L 869.60 766.10 L 858.10 771.10 L 846.90 775.60 L 834.50 780.00 L 821.00 784.30 L 806.20 788.70 L 776.20 796.20 L 742.80 803.00 L 720.10 807.00 L 696.20 810.50 L 671.20 813.60 L 646.10 816.20 L 620.20 818.40 L 593.50 820.20 L 566.80 821.40 L 539.60 822.10 L 512.00 822.40 L 484.40 822.10 L 457.20 821.40 L 430.50 820.20 L 403.80 818.40 L 377.90 816.20 L 352.80 813.60 L 327.80 810.50 L 303.90 807.00 L 281.20 803.00 L 247.80 796.20 L 217.80 788.70 L 203.00 784.30 L 189.50 780.00 L 177.10 775.60 L 165.90 771.10 L 154.40 766.10 L 144.30 761.10 L 135.40 756.20 L 127.70 751.30 L 121.40 746.80 L 115.90 742.40 L 111.30 738.10 L 107.30 733.90 L 104.10 729.80 L 101.10 725.10 L 98.80 720.60 L 97.20 716.10 L 96.30 711.60 L 96.00 707.20 L 96.30 702.80 L 97.20 698.30 L 98.80 693.80 L 101.10 689.30 L 104.10 684.60 L 107.30 680.50 L 111.30 676.30 L 115.90 672.00 L 121.40 667.60 L 127.70 663.10 L 135.40 658.20 L 144.30 653.30 L 154.40 648.30 L 165.90 643.30 L 177.10 638.80 L 189.50 634.40 L 203.00 630.10 L 217.80 625.70 L 247.80 618.20 L 281.20 611.40 L 303.90 607.40 L 327.80 603.90 L 352.80 600.80 L 377.90 598.20 L 403.80 596.00 L 430.50 594.20 L 457.20 593.00 L 484.40 592.30 L 512.00 592.00 L 539.60 592.30 L 566.80 593.00 L 593.50 594.20 L 620.20 596.00 L 646.10 598.20 L 671.20 600.80 L 696.20 603.90 L 720.10 607.40 L 742.80 611.40 L 776.20 618.20 L 806.20 625.70 L 821.00 630.10 L 834.50 634.40 L 846.90 638.80 L 858.10 643.30 L 869.60 648.30 L 879.70 653.30 L 888.60 658.20 L 896.30 663.10 L 902.60 667.60 L 908.10 672.00 L 912.70 676.30 L 916.70 680.50 L 919.90 684.60 L 922.90 689.30 L 925.20 693.80 L 926.80 698.30 L 927.70 702.80 L 928.00 707.20 Z" fill="url(#linearGradient-1)" fill-rule="evenodd" id="椭圆形" node-id="9" stroke="none" target-height="230.40002" target-width="832" target-x="96" target-y="592"></path><g node-id="25"><path d="M 374.40 172.80 L 649.60 172.80 L 653.10 173.00 L 656.40 173.70 L 659.60 174.80 L 662.50 176.30 L 665.20 178.10 L 667.70 180.30 L 669.90 182.80 L 671.70 185.50 L 673.20 188.40 L 674.30 191.60 L 675.00 194.90 L 675.20 198.40 L 675.20 550.40 L 675.00 553.80 L 674.30 557.00 L 673.30 560.20 L 671.80 563.20 L 669.90 565.90 L 667.70 568.50 L 665.10 570.70 L 662.40 572.60 L 659.40 574.10 L 656.20 575.10 L 653.00 575.80 L 649.60 576.00 L 374.40 576.00 L 370.90 575.80 L 367.60 575.10 L 364.40 574.00 L 361.50 572.50 L 358.80 570.70 L 356.30 568.50 L 354.10 566.00 L 352.30 563.30 L 350.80 560.40 L 349.70 557.20 L 349.00 553.90 L 348.80 550.40 L 348.80 198.40 L 349.00 194.90 L 349.70 191.60 L 350.80 188.40 L 352.30 185.50 L 354.10 182.80 L 356.30 180.30 L 358.80 178.10 L 361.50 176.30 L 364.40 174.80 L 367.60 173.70 L 370.90 173.00 L 374.40 172.80 Z" fill="#d8ebfa" fill-rule="evenodd" group-id="1" id="矩形" node-id="11" stroke="none" target-height="403.2" target-width="326.40002" target-x="348.8" target-y="172.8"></path><path d="M 409.60 198.40 L 617.60 198.40 L 621.10 198.60 L 624.40 199.30 L 627.60 200.40 L 630.50 201.90 L 633.20 203.70 L 635.70 205.90 L 637.90 208.40 L 639.70 211.10 L 641.20 214.00 L 642.30 217.20 L 643.00 220.50 L 643.20 224.00 L 643.20 518.40 L 643.00 521.80 L 642.30 525.00 L 641.30 528.20 L 639.80 531.20 L 637.90 533.90 L 635.70 536.50 L 633.10 538.70 L 630.40 540.60 L 627.40 542.10 L 624.20 543.10 L 621.00 543.80 L 617.60 544.00 L 409.60 544.00 L 406.10 543.80 L 402.80 543.10 L 399.60 542.00 L 396.70 540.50 L 394.00 538.70 L 391.50 536.50 L 389.30 534.00 L 387.50 531.30 L 386.00 528.40 L 384.90 525.20 L 384.20 521.90 L 384.00 518.40 L 384.00 224.00 L 384.20 220.50 L 384.90 217.20 L 386.00 214.00 L 387.50 211.10 L 389.30 208.40 L 391.50 205.90 L 394.00 203.70 L 396.70 201.90 L 399.60 200.40 L 402.80 199.30 L 406.10 198.60 L 409.60 198.40 Z" fill="#f2f7fb" fill-rule="evenodd" group-id="1" id="矩形" node-id="12" stroke="none" target-height="345.6" target-width="259.2" target-x="384" target-y="198.4"></path><path d="M 425.60 419.20 L 489.60 419.20 L 491.30 419.40 L 492.80 420.10 L 494.10 421.10 L 495.10 422.40 L 495.80 423.90 L 496.00 425.60 L 495.80 427.30 L 495.10 428.80 L 494.10 430.10 L 492.80 431.10 L 491.30 431.80 L 489.60 432.00 L 425.60 432.00 L 423.90 431.80 L 422.40 431.10 L 421.10 430.10 L 420.10 428.80 L 419.40 427.30 L 419.20 425.60 L 419.40 423.90 L 420.10 422.40 L 421.10 421.10 L 422.40 420.10 L 423.90 419.40 L 425.60 419.20 Z M 425.60 451.20 L 601.60 451.20 L 603.30 451.40 L 604.80 452.10 L 606.10 453.10 L 607.10 454.40 L 607.80 455.90 L 608.00 457.60 L 607.80 459.30 L 607.10 460.80 L 606.10 462.10 L 604.80 463.10 L 603.30 463.80 L 601.60 464.00 L 425.60 464.00 L 423.90 463.80 L 422.40 463.10 L 421.10 462.10 L 420.10 460.80 L 419.40 459.30 L 419.20 457.60 L 419.40 455.90 L 420.10 454.40 L 421.10 453.10 L 422.40 452.10 L 423.90 451.40 L 425.60 451.20 Z M 425.60 483.20 L 550.40 483.20 L 552.10 483.40 L 553.60 484.10 L 554.90 485.10 L 555.90 486.40 L 556.60 487.90 L 556.80 489.60 L 556.60 491.30 L 555.90 492.80 L 554.90 494.10 L 553.60 495.10 L 552.10 495.80 L 550.40 496.00 L 425.60 496.00 L 423.90 495.80 L 422.40 495.10 L 421.10 494.10 L 420.10 492.80 L 419.40 491.30 L 419.20 489.60 L 419.40 487.90 L 420.10 486.40 L 421.10 485.10 L 422.40 484.10 L 423.90 483.40 L 425.60 483.20 Z M 537.60 419.20 L 601.60 419.20 L 603.30 419.40 L 604.80 420.10 L 606.10 421.10 L 607.10 422.40 L 607.80 423.90 L 608.00 425.60 L 607.80 427.30 L 607.10 428.80 L 606.10 430.10 L 604.80 431.10 L 603.30 431.80 L 601.60 432.00 L 537.60 432.00 L 535.90 431.80 L 534.40 431.10 L 533.10 430.10 L 532.10 428.80 L 531.40 427.30 L 531.20 425.60 L 531.40 423.90 L 532.10 422.40 L 533.10 421.10 L 534.40 420.10 L 535.90 419.40 L 537.60 419.20 Z" fill="#60a4f7" fill-rule="evenodd" group-id="1" id="形状结合" node-id="13" stroke="none" target-height="76.79999" target-width="188.79999" target-x="419.2" target-y="419.2"></path><path d="M 512.00 272.00 L 515.50 272.30 L 518.70 273.20 L 521.70 274.60 L 524.40 276.50 L 526.70 278.80 L 528.60 281.50 L 530.00 284.50 L 530.90 287.70 L 531.20 291.20 L 531.20 304.00 L 530.90 307.50 L 530.00 310.70 L 528.60 313.70 L 526.70 316.40 L 524.40 318.70 L 521.70 320.60 L 518.70 322.00 L 515.50 322.90 L 512.00 323.20 L 508.50 322.90 L 505.30 322.00 L 502.30 320.60 L 499.60 318.70 L 497.30 316.40 L 495.40 313.70 L 494.00 310.70 L 493.10 307.50 L 492.80 304.00 L 492.80 291.20 L 493.10 287.70 L 494.00 284.50 L 495.40 281.50 L 497.30 278.80 L 499.60 276.50 L 502.30 274.60 L 505.30 273.20 L 508.50 272.30 L 512.00 272.00 Z" fill="#8cc6fa" fill-rule="evenodd" group-id="1" id="矩形" node-id="14" stroke="none" target-height="51.200012" target-width="38.400024" target-x="492.8" target-y="272"></path><path d="M 489.60 329.60 L 534.40 329.60 L 537.50 329.80 L 543.10 331.40 L 545.70 332.70 L 550.20 336.20 L 553.70 340.70 L 556.00 346.00 L 556.80 352.00 L 556.00 358.00 L 553.70 363.30 L 552.10 365.70 L 548.10 369.70 L 543.10 372.60 L 537.50 374.20 L 534.40 374.40 L 489.60 374.40 L 486.50 374.20 L 480.90 372.60 L 478.30 371.30 L 473.80 367.80 L 470.30 363.30 L 469.00 360.70 L 467.40 355.10 L 467.20 352.00 L 467.40 348.90 L 469.00 343.30 L 471.90 338.30 L 475.90 334.30 L 478.30 332.70 L 483.60 330.40 L 489.60 329.60 Z" fill="#8cc6fa" fill-rule="evenodd" group-id="1" id="矩形" node-id="15" stroke="none" target-height="44.799988" target-width="89.599976" target-x="467.2" target-y="329.6"></path><path d="M 515.20 108.80 L 523.00 109.60 L 530.10 111.80 L 534.60 114.10 L 538.70 116.80 L 542.40 120.00 L 545.60 123.70 L 548.30 127.80 L 550.60 132.30 L 552.80 139.40 L 553.60 147.20 L 553.60 160.00 L 582.40 160.00 L 584.70 160.20 L 588.90 161.70 L 590.70 163.00 L 593.50 166.30 L 595.00 170.50 L 595.20 172.80 L 595.20 211.20 L 595.00 213.50 L 593.50 217.70 L 590.70 221.00 L 586.90 223.20 L 582.40 224.00 L 441.60 224.00 L 439.30 223.80 L 435.10 222.30 L 433.30 221.00 L 430.50 217.70 L 429.00 213.50 L 428.80 211.20 L 428.80 172.80 L 429.60 168.30 L 431.80 164.50 L 435.10 161.70 L 439.30 160.20 L 441.60 160.00 L 476.80 160.00 L 476.80 147.20 L 477.60 139.40 L 479.80 132.30 L 482.10 127.80 L 484.80 123.70 L 488.00 120.00 L 491.70 116.80 L 495.80 114.10 L 500.30 111.80 L 507.40 109.60 L 515.20 108.80 Z M 515.20 124.80 L 509.20 125.60 L 503.90 127.90 L 499.40 131.40 L 495.90 135.90 L 493.60 141.20 L 493.00 144.10 L 492.80 160.00 L 537.60 160.00 L 537.40 144.10 L 536.80 141.20 L 534.50 135.90 L 531.00 131.40 L 526.50 127.90 L 521.20 125.60 L 515.20 124.80 Z" fill="#60a4f7" fill-rule="evenodd" group-id="1" id="形状结合" node-id="16" stroke="none" target-height="115.2" target-width="166.40002" target-x="428.8" target-y="108.8"></path></g></svg>