<?xml version="1.0" standalone="no"?><!DOCTYPE svg PUBLIC "-//W3C//DTD SVG 1.1//EN" "http://www.w3.org/Graphics/SVG/1.1/DTD/svg11.dtd"><svg height="1024" node-id="1" sillyvg="true" template-height="1024" template-width="1024" version="1.1" viewBox="0 0 1024 1024" width="1024" xmlns="http://www.w3.org/2000/svg" xmlns:xlink="http://www.w3.org/1999/xlink"><defs node-id="28"><linearGradient gradientUnits="objectBoundingBox" id="linearGradient-1" node-id="5" spreadMethod="pad" x1="0.5" x2="0.5" y1="0" y2="0.5"><stop offset="0" stop-color="#e6f2ff"></stop><stop offset="1" stop-color="#e3effd" stop-opacity="0"></stop></linearGradient><mask height="433.92" id="mask-3" maskUnits="userSpaceOnUse" node-id="14" width="284.16003" x="251.52002" y="139.84"><path d="M 393.60 496.00 L 382.00 495.00 L 370.40 494.60 L 358.80 494.80 L 347.10 495.50 L 335.30 496.80 L 323.50 498.60 L 311.60 501.00 L 299.60 504.10 L 287.50 507.70 L 275.20 512.00 L 275.20 198.40 L 288.60 193.60 L 301.90 189.40 L 315.10 185.80 L 328.30 182.80 L 341.40 180.30 L 354.50 178.40 L 367.60 177.10 L 380.60 176.30 L 393.60 176.00 L 402.30 176.30 L 410.90 177.10 L 419.60 178.50 L 428.40 180.40 L 437.20 183.00 L 446.10 186.10 L 455.10 189.80 L 464.30 194.20 L 473.50 199.30 L 482.90 205.10 L 492.40 211.70 L 502.10 219.00 L 512.00 227.20 L 522.90 218.20 L 532.50 211.00 L 542.00 204.60 L 551.30 198.90 L 560.40 193.90 L 569.40 189.60 L 578.40 185.90 L 587.20 182.80 L 595.90 180.30 L 604.60 178.40 L 613.20 177.10 L 621.80 176.30 L 630.40 176.00 L 643.40 176.30 L 656.40 177.10 L 669.50 178.40 L 682.60 180.30 L 695.70 182.80 L 708.90 185.80 L 722.10 189.40 L 735.40 193.60 L 748.80 198.40 L 748.80 512.00 L 736.50 507.70 L 724.40 504.10 L 712.40 501.00 L 700.50 498.60 L 688.70 496.80 L 676.90 495.50 L 665.20 494.80 L 653.60 494.60 L 642.00 495.00 L 630.40 496.00 L 619.10 497.50 L 607.60 499.50 L 596.10 502.20 L 584.50 505.30 L 572.80 509.10 L 560.90 513.50 L 548.90 518.50 L 536.80 524.20 L 524.50 530.60 L 512.00 537.60 L 499.50 530.60 L 487.20 524.20 L 475.10 518.50 L 463.10 513.50 L 451.20 509.10 L 439.50 505.30 L 427.90 502.20 L 416.40 499.50 L 404.90 497.50 L 393.60 496.00 Z" fill="#ffffff" fill-rule="evenodd" node-id="39" stroke="none" target-height="361.59998" target-width="473.59998" target-x="275.2" target-y="176"></path></mask></defs><path d="M 928.00 707.20 L 927.70 711.60 L 926.80 716.10 L 925.20 720.60 L 922.90 725.10 L 919.90 729.80 L 916.70 733.90 L 912.70 738.10 L 908.10 742.40 L 902.60 746.80 L 896.30 751.30 L 888.60 756.20 L 879.70 761.10 L 869.60 766.10 L 858.10 771.10 L 846.90 775.60 L 834.50 780.00 L 821.00 784.30 L 806.20 788.70 L 776.20 796.20 L 742.80 803.00 L 720.10 807.00 L 696.20 810.50 L 671.20 813.60 L 646.10 816.20 L 620.20 818.40 L 593.50 820.20 L 566.80 821.40 L 539.60 822.10 L 512.00 822.40 L 484.40 822.10 L 457.20 821.40 L 430.50 820.20 L 403.80 818.40 L 377.90 816.20 L 352.80 813.60 L 327.80 810.50 L 303.90 807.00 L 281.20 803.00 L 247.80 796.20 L 217.80 788.70 L 203.00 784.30 L 189.50 780.00 L 177.10 775.60 L 165.90 771.10 L 154.40 766.10 L 144.30 761.10 L 135.40 756.20 L 127.70 751.30 L 121.40 746.80 L 115.90 742.40 L 111.30 738.10 L 107.30 733.90 L 104.10 729.80 L 101.10 725.10 L 98.80 720.60 L 97.20 716.10 L 96.30 711.60 L 96.00 707.20 L 96.30 702.80 L 97.20 698.30 L 98.80 693.80 L 101.10 689.30 L 104.10 684.60 L 107.30 680.50 L 111.30 676.30 L 115.90 672.00 L 121.40 667.60 L 127.70 663.10 L 135.40 658.20 L 144.30 653.30 L 154.40 648.30 L 165.90 643.30 L 177.10 638.80 L 189.50 634.40 L 203.00 630.10 L 217.80 625.70 L 247.80 618.20 L 281.20 611.40 L 303.90 607.40 L 327.80 603.90 L 352.80 600.80 L 377.90 598.20 L 403.80 596.00 L 430.50 594.20 L 457.20 593.00 L 484.40 592.30 L 512.00 592.00 L 539.60 592.30 L 566.80 593.00 L 593.50 594.20 L 620.20 596.00 L 646.10 598.20 L 671.20 600.80 L 696.20 603.90 L 720.10 607.40 L 742.80 611.40 L 776.20 618.20 L 806.20 625.70 L 821.00 630.10 L 834.50 634.40 L 846.90 638.80 L 858.10 643.30 L 869.60 648.30 L 879.70 653.30 L 888.60 658.20 L 896.30 663.10 L 902.60 667.60 L 908.10 672.00 L 912.70 676.30 L 916.70 680.50 L 919.90 684.60 L 922.90 689.30 L 925.20 693.80 L 926.80 698.30 L 927.70 702.80 L 928.00 707.20 Z" fill="url(#linearGradient-1)" fill-rule="evenodd" id="椭圆形" node-id="10" stroke="none" target-height="230.40002" target-width="832" target-x="96" target-y="592"></path><g node-id="57"><g node-id="58"><g node-id="60"><g node-id="62"><path d="M 393.60 496.00 L 382.00 495.00 L 370.40 494.60 L 358.80 494.80 L 347.10 495.50 L 335.30 496.80 L 323.50 498.60 L 311.60 501.00 L 299.60 504.10 L 287.50 507.70 L 275.20 512.00 L 275.20 198.40 L 288.60 193.60 L 301.90 189.40 L 315.10 185.80 L 328.30 182.80 L 341.40 180.30 L 354.50 178.40 L 367.60 177.10 L 380.60 176.30 L 393.60 176.00 L 402.30 176.30 L 410.90 177.10 L 419.60 178.50 L 428.40 180.40 L 437.20 183.00 L 446.10 186.10 L 455.10 189.80 L 464.30 194.20 L 473.50 199.30 L 482.90 205.10 L 492.40 211.70 L 502.10 219.00 L 512.00 227.20 L 522.90 218.20 L 532.50 211.00 L 542.00 204.60 L 551.30 198.90 L 560.40 193.90 L 569.40 189.60 L 578.40 185.90 L 587.20 182.80 L 595.90 180.30 L 604.60 178.40 L 613.20 177.10 L 621.80 176.30 L 630.40 176.00 L 643.40 176.30 L 656.40 177.10 L 669.50 178.40 L 682.60 180.30 L 695.70 182.80 L 708.90 185.80 L 722.10 189.40 L 735.40 193.60 L 748.80 198.40 L 748.80 512.00 L 736.50 507.70 L 724.40 504.10 L 712.40 501.00 L 700.50 498.60 L 688.70 496.80 L 676.90 495.50 L 665.20 494.80 L 653.60 494.60 L 642.00 495.00 L 630.40 496.00 L 619.10 497.50 L 607.60 499.50 L 596.10 502.20 L 584.50 505.30 L 572.80 509.10 L 560.90 513.50 L 548.90 518.50 L 536.80 524.20 L 524.50 530.60 L 512.00 537.60 L 499.50 530.60 L 487.20 524.20 L 475.10 518.50 L 463.10 513.50 L 451.20 509.10 L 439.50 505.30 L 427.90 502.20 L 416.40 499.50 L 404.90 497.50 L 393.60 496.00 Z" fill="#b8daff" fill-rule="evenodd" group-id="1,2,4,6" node-id="50" stroke="none" target-height="361.59998" target-width="473.59998" target-x="275.2" target-y="176"></path></g><path d="M 275.20 176.00 L 512.00 176.00 L 512.00 537.60 L 275.20 537.60 Z" fill="#70aef9" fill-rule="evenodd" group-id="1,2,4,7" node-id="55" stroke="none" target-height="361.59998" target-width="236.79999" target-x="275.2" target-y="176"></path></g><path d="M 348.80 134.40 L 366.20 138.20 L 382.00 142.20 L 396.50 146.40 L 409.70 150.80 L 421.60 155.40 L 432.40 160.10 L 442.20 164.90 L 449.60 169.10 L 457.00 173.90 L 464.60 179.30 L 472.20 185.40 L 480.00 192.20 L 487.80 199.70 L 495.70 208.00 L 503.80 217.20 L 512.00 227.20 L 512.00 537.60 L 500.10 524.50 L 489.30 513.20 L 479.40 503.60 L 470.40 495.50 L 462.30 488.80 L 454.90 483.30 L 448.20 478.80 L 442.20 475.40 L 435.90 472.30 L 428.50 469.30 L 419.60 466.20 L 409.30 463.10 L 397.20 460.00 L 383.20 457.00 L 367.10 454.10 L 348.80 451.20 L 348.80 134.40 Z" fill="#d5eafd" fill-rule="evenodd" group-id="1,2" id="矩形" node-id="18" stroke="none" target-height="403.19998" target-width="163.20001" target-x="348.8" target-y="134.4"></path></g><path d="M 528.00 268.80 L 535.30 263.80 L 543.30 258.90 L 552.00 254.30 L 561.60 249.80 L 572.10 245.50 L 583.40 241.40 L 595.80 237.50 L 606.80 234.60 L 617.20 232.30 L 627.00 230.60 L 636.30 229.50 L 645.10 229.00 L 653.40 229.00 L 661.30 229.50 L 668.80 230.40 L 668.80 288.00 L 655.00 288.20 L 642.10 288.90 L 630.10 290.10 L 618.80 291.60 L 608.20 293.50 L 598.40 295.70 L 588.90 298.40 L 578.60 302.00 L 567.40 306.50 L 555.30 312.00 L 542.20 318.60 L 528.00 326.40 L 528.00 268.80 Z" fill="#ddeefe" fill-rule="evenodd" group-id="1" id="矩形" node-id="19" stroke="none" target-height="97.399994" target-width="140.79999" target-x="528" target-y="229"></path><path d="M 395.40 209.40 L 400.60 210.40 L 406.50 212.10 L 413.20 214.50 L 420.60 217.80 L 429.00 222.10 L 438.40 227.60 L 447.60 233.50 L 454.80 238.80 L 461.30 244.10 L 469.80 252.20 L 474.10 257.30" fill="none" group-id="1" id="路径-2" node-id="20" stroke="#4d92ed" stroke-linecap="round" stroke-width="12.8" target-height="47.899994" target-width="78.70001" target-x="395.4" target-y="209.4"></path><path d="M 395.40 253.60 L 403.90 255.10 L 410.80 256.90 L 416.50 258.90 L 421.10 261.00 L 425.50 263.60 L 430.40 267.10 L 435.90 271.70 L 442.20 277.60" fill="none" group-id="1" id="路径-2备份" node-id="21" stroke="#4d92ed" stroke-linecap="round" stroke-width="12.8" target-height="24" target-width="46.80002" target-x="395.4" target-y="253.6"></path><g node-id="59"><path d="M 796.50 263.70 L 797.30 264.70 L 797.90 267.10 L 797.30 269.40 L 796.50 270.50 L 784.20 282.60 L 783.00 283.00 L 780.60 283.00 L 778.40 281.80 L 777.20 279.60 L 777.00 278.40 L 777.20 277.10 L 778.40 275.00 L 790.80 262.90 L 791.90 262.40 L 794.30 262.40 L 796.50 263.70 Z" fill="#45a2fc" fill-rule="evenodd" group-id="1,3" id="矩形" node-id="23" stroke="none" target-height="20.600006" target-width="20.900024" target-x="777" target-y="262.4"></path><path d="M 738.80 278.40 L 741.10 276.50 L 743.50 275.10 L 746.10 274.20 L 748.80 273.80 L 751.50 273.80 L 754.20 274.20 L 756.80 275.10 L 759.20 276.50 L 761.40 278.40 L 763.30 280.60 L 764.70 283.10 L 765.60 285.60 L 766.10 288.40 L 766.10 291.00 L 765.60 293.80 L 764.70 296.30 L 763.30 298.80 L 761.40 301.00 L 747.90 314.60 L 740.50 307.20 L 754.40 293.40 L 755.40 292.10 L 755.90 290.70 L 755.90 287.60 L 755.40 286.20 L 754.40 284.90 L 753.10 283.90 L 751.70 283.30 L 750.10 283.10 L 747.20 283.90 L 745.90 284.90 L 731.00 299.50 L 729.90 300.00 L 727.40 300.00 L 725.20 298.80 L 724.00 296.60 L 724.00 294.10 L 724.50 293.00 L 738.80 278.40 Z" fill="#45a2fc" fill-rule="evenodd" group-id="1,3" id="形状结合" node-id="24" stroke="none" target-height="40.80002" target-width="42.099976" target-x="724" target-y="273.8"></path><path d="M 779.60 269.30 L 790.90 280.70 L 791.90 282.10 L 792.50 283.50 L 792.70 285.20 L 792.50 286.80 L 791.90 288.30 L 790.90 289.70 L 673.20 407.40 L 652.80 387.00 L 770.50 269.30 L 771.90 268.30 L 773.40 267.70 L 775.00 267.50 L 776.70 267.70 L 778.10 268.30 L 779.60 269.30 Z" fill="#d8edff" fill-rule="evenodd" group-id="1,3" id="矩形" node-id="25" stroke="none" target-height="139.9" target-width="139.90002" target-x="652.8" target-y="267.5"></path><g node-id="61"><path d="M 643.70 418.50 L 673.20 407.40 L 652.80 387.00 L 641.70 416.50 L 641.60 417.10 L 642.00 418.20 L 642.60 418.50 L 643.70 418.50 Z" fill="#69adf3" fill-rule="evenodd" group-id="1,3,5" id="三角形" node-id="26" stroke="none" target-height="31.5" target-width="31.600037" target-x="641.6" target-y="387"></path></g></g></g></svg>